<mxfile host="app.diagrams.net" modified="2024-01-03T13:33:19.220Z" agent="Mozilla/5.0 (Windows NT 10.0; Win64; x64) AppleWebKit/537.36 (KHTML, like Gecko) Chrome/120.0.0.0 Safari/537.36" etag="sCin7tx_3ehRYj87vUM2" version="22.1.16" type="github">
  <diagram name="Page-1" id="GJx7aqCc3YLOl576Z9mc">
    <mxGraphModel dx="1313" dy="1806" grid="1" gridSize="10" guides="1" tooltips="1" connect="1" arrows="1" fold="1" page="1" pageScale="1" pageWidth="850" pageHeight="1100" math="0" shadow="0">
      <root>
        <mxCell id="0" />
        <mxCell id="1" parent="0" />
        <mxCell id="oXNcu96SMt2CY3mdLOwg-28" style="rounded=0;orthogonalLoop=1;jettySize=auto;html=1;entryX=0;entryY=0.5;entryDx=0;entryDy=0;exitX=0.817;exitY=0.017;exitDx=0;exitDy=0;exitPerimeter=0;" edge="1" parent="1" source="oXNcu96SMt2CY3mdLOwg-1" target="oXNcu96SMt2CY3mdLOwg-18">
          <mxGeometry relative="1" as="geometry" />
        </mxCell>
        <mxCell id="oXNcu96SMt2CY3mdLOwg-31" style="edgeStyle=orthogonalEdgeStyle;rounded=0;orthogonalLoop=1;jettySize=auto;html=1;exitX=0.5;exitY=1;exitDx=0;exitDy=0;" edge="1" parent="1" source="oXNcu96SMt2CY3mdLOwg-1">
          <mxGeometry relative="1" as="geometry">
            <mxPoint x="239.66666666666674" y="370" as="targetPoint" />
          </mxGeometry>
        </mxCell>
        <mxCell id="oXNcu96SMt2CY3mdLOwg-1" value="View service" style="rounded=0;whiteSpace=wrap;html=1;" vertex="1" parent="1">
          <mxGeometry x="180" y="120" width="120" height="60" as="geometry" />
        </mxCell>
        <mxCell id="oXNcu96SMt2CY3mdLOwg-3" value="повертає статичні файли в браузер (html, css, js)" style="shape=note;whiteSpace=wrap;html=1;backgroundOutline=1;darkOpacity=0.05;" vertex="1" parent="1">
          <mxGeometry x="180" y="210" width="120" height="100" as="geometry" />
        </mxCell>
        <mxCell id="oXNcu96SMt2CY3mdLOwg-32" style="edgeStyle=orthogonalEdgeStyle;rounded=0;orthogonalLoop=1;jettySize=auto;html=1;exitX=0.5;exitY=1;exitDx=0;exitDy=0;" edge="1" parent="1" source="oXNcu96SMt2CY3mdLOwg-4">
          <mxGeometry relative="1" as="geometry">
            <mxPoint x="419.6666666666665" y="370" as="targetPoint" />
          </mxGeometry>
        </mxCell>
        <mxCell id="oXNcu96SMt2CY3mdLOwg-4" value="Authorization &lt;br&gt;service" style="rounded=0;whiteSpace=wrap;html=1;" vertex="1" parent="1">
          <mxGeometry x="360" y="120" width="120" height="60" as="geometry" />
        </mxCell>
        <mxCell id="oXNcu96SMt2CY3mdLOwg-5" value="керує логікою &lt;br&gt;авторизації користувача/реєстрації в системі,&amp;nbsp;&lt;br&gt;вхід користувача у свій кабінет&amp;nbsp;&amp;nbsp;" style="shape=note;whiteSpace=wrap;html=1;backgroundOutline=1;darkOpacity=0.05;" vertex="1" parent="1">
          <mxGeometry x="360" y="210" width="150" height="100" as="geometry" />
        </mxCell>
        <mxCell id="oXNcu96SMt2CY3mdLOwg-33" style="edgeStyle=orthogonalEdgeStyle;rounded=0;orthogonalLoop=1;jettySize=auto;html=1;exitX=0.5;exitY=1;exitDx=0;exitDy=0;" edge="1" parent="1" source="oXNcu96SMt2CY3mdLOwg-6">
          <mxGeometry relative="1" as="geometry">
            <mxPoint x="599.6666666666665" y="370" as="targetPoint" />
          </mxGeometry>
        </mxCell>
        <mxCell id="oXNcu96SMt2CY3mdLOwg-6" value="Books analytics&amp;nbsp;&lt;br&gt;service" style="rounded=0;whiteSpace=wrap;html=1;" vertex="1" parent="1">
          <mxGeometry x="540" y="120" width="120" height="60" as="geometry" />
        </mxCell>
        <mxCell id="oXNcu96SMt2CY3mdLOwg-7" value="логіка опрацювання аналітики популярності книг (для сервісу пошуковика)" style="shape=note;whiteSpace=wrap;html=1;backgroundOutline=1;darkOpacity=0.05;" vertex="1" parent="1">
          <mxGeometry x="540" y="210" width="150" height="100" as="geometry" />
        </mxCell>
        <mxCell id="oXNcu96SMt2CY3mdLOwg-34" style="edgeStyle=orthogonalEdgeStyle;rounded=0;orthogonalLoop=1;jettySize=auto;html=1;exitX=0.5;exitY=1;exitDx=0;exitDy=0;" edge="1" parent="1" source="oXNcu96SMt2CY3mdLOwg-8">
          <mxGeometry relative="1" as="geometry">
            <mxPoint x="789.6666666666665" y="370" as="targetPoint" />
          </mxGeometry>
        </mxCell>
        <mxCell id="oXNcu96SMt2CY3mdLOwg-8" value="Library &lt;br&gt;service" style="rounded=0;whiteSpace=wrap;html=1;" vertex="1" parent="1">
          <mxGeometry x="730" y="120" width="120" height="60" as="geometry" />
        </mxCell>
        <mxCell id="oXNcu96SMt2CY3mdLOwg-9" value="сховище книг, з якими взаємодіяв користувач. Оцінювання книг йде з цього сервісу" style="shape=note;whiteSpace=wrap;html=1;backgroundOutline=1;darkOpacity=0.05;" vertex="1" parent="1">
          <mxGeometry x="730" y="210" width="150" height="100" as="geometry" />
        </mxCell>
        <mxCell id="oXNcu96SMt2CY3mdLOwg-35" style="edgeStyle=orthogonalEdgeStyle;rounded=0;orthogonalLoop=1;jettySize=auto;html=1;exitX=0.5;exitY=1;exitDx=0;exitDy=0;" edge="1" parent="1" source="oXNcu96SMt2CY3mdLOwg-10">
          <mxGeometry relative="1" as="geometry">
            <mxPoint x="989.6666666666665" y="370" as="targetPoint" />
          </mxGeometry>
        </mxCell>
        <mxCell id="oXNcu96SMt2CY3mdLOwg-10" value="Rating&lt;br&gt;service" style="rounded=0;whiteSpace=wrap;html=1;" vertex="1" parent="1">
          <mxGeometry x="930" y="120" width="120" height="60" as="geometry" />
        </mxCell>
        <mxCell id="oXNcu96SMt2CY3mdLOwg-11" value="оцінювання книг&lt;br&gt;&amp;nbsp;та одне з джерел зібрання даних для Rating service&amp;nbsp;" style="shape=note;whiteSpace=wrap;html=1;backgroundOutline=1;darkOpacity=0.05;" vertex="1" parent="1">
          <mxGeometry x="930" y="210" width="150" height="100" as="geometry" />
        </mxCell>
        <mxCell id="oXNcu96SMt2CY3mdLOwg-37" style="edgeStyle=orthogonalEdgeStyle;rounded=0;orthogonalLoop=1;jettySize=auto;html=1;exitX=1;exitY=0.25;exitDx=0;exitDy=0;entryX=0;entryY=0.25;entryDx=0;entryDy=0;" edge="1" parent="1" source="oXNcu96SMt2CY3mdLOwg-12" target="oXNcu96SMt2CY3mdLOwg-26">
          <mxGeometry relative="1" as="geometry" />
        </mxCell>
        <mxCell id="oXNcu96SMt2CY3mdLOwg-12" value="Messaging &lt;br&gt;service" style="rounded=0;whiteSpace=wrap;html=1;" vertex="1" parent="1">
          <mxGeometry x="170" y="440" width="120" height="60" as="geometry" />
        </mxCell>
        <mxCell id="oXNcu96SMt2CY3mdLOwg-13" value="листування між користувачами щодо операції над книгою" style="shape=note;whiteSpace=wrap;html=1;backgroundOutline=1;darkOpacity=0.05;" vertex="1" parent="1">
          <mxGeometry x="170" y="530" width="120" height="100" as="geometry" />
        </mxCell>
        <mxCell id="oXNcu96SMt2CY3mdLOwg-15" value="Data &lt;br&gt;store" style="shape=cylinder3;whiteSpace=wrap;html=1;boundedLbl=1;backgroundOutline=1;size=15;" vertex="1" parent="1">
          <mxGeometry x="650" y="450" width="60" height="80" as="geometry" />
        </mxCell>
        <mxCell id="oXNcu96SMt2CY3mdLOwg-16" value="Logging&amp;nbsp;" style="rounded=0;whiteSpace=wrap;html=1;" vertex="1" parent="1">
          <mxGeometry x="10" y="340" width="120" height="60" as="geometry" />
        </mxCell>
        <mxCell id="oXNcu96SMt2CY3mdLOwg-20" style="rounded=0;orthogonalLoop=1;jettySize=auto;html=1;entryX=0.25;entryY=0;entryDx=0;entryDy=0;exitX=0;exitY=0.378;exitDx=0;exitDy=0;exitPerimeter=0;" edge="1" parent="1" source="oXNcu96SMt2CY3mdLOwg-18" target="oXNcu96SMt2CY3mdLOwg-1">
          <mxGeometry relative="1" as="geometry" />
        </mxCell>
        <mxCell id="oXNcu96SMt2CY3mdLOwg-21" style="rounded=0;orthogonalLoop=1;jettySize=auto;html=1;" edge="1" parent="1" source="oXNcu96SMt2CY3mdLOwg-18" target="oXNcu96SMt2CY3mdLOwg-4">
          <mxGeometry relative="1" as="geometry" />
        </mxCell>
        <mxCell id="oXNcu96SMt2CY3mdLOwg-22" style="rounded=0;orthogonalLoop=1;jettySize=auto;html=1;exitX=0.5;exitY=1;exitDx=0;exitDy=0;" edge="1" parent="1" source="oXNcu96SMt2CY3mdLOwg-18" target="oXNcu96SMt2CY3mdLOwg-6">
          <mxGeometry relative="1" as="geometry" />
        </mxCell>
        <mxCell id="oXNcu96SMt2CY3mdLOwg-23" style="rounded=0;orthogonalLoop=1;jettySize=auto;html=1;exitX=1;exitY=1;exitDx=0;exitDy=0;entryX=0.25;entryY=0;entryDx=0;entryDy=0;" edge="1" parent="1" source="oXNcu96SMt2CY3mdLOwg-18" target="oXNcu96SMt2CY3mdLOwg-8">
          <mxGeometry relative="1" as="geometry" />
        </mxCell>
        <mxCell id="oXNcu96SMt2CY3mdLOwg-24" style="rounded=0;orthogonalLoop=1;jettySize=auto;html=1;exitX=1;exitY=0.5;exitDx=0;exitDy=0;" edge="1" parent="1" source="oXNcu96SMt2CY3mdLOwg-18" target="oXNcu96SMt2CY3mdLOwg-10">
          <mxGeometry relative="1" as="geometry" />
        </mxCell>
        <mxCell id="oXNcu96SMt2CY3mdLOwg-18" value="Browser" style="ellipse;whiteSpace=wrap;html=1;aspect=fixed;" vertex="1" parent="1">
          <mxGeometry x="630" y="-70" width="80" height="80" as="geometry" />
        </mxCell>
        <mxCell id="oXNcu96SMt2CY3mdLOwg-27" style="edgeStyle=orthogonalEdgeStyle;rounded=0;orthogonalLoop=1;jettySize=auto;html=1;" edge="1" parent="1" source="oXNcu96SMt2CY3mdLOwg-26" target="oXNcu96SMt2CY3mdLOwg-12">
          <mxGeometry relative="1" as="geometry" />
        </mxCell>
        <mxCell id="oXNcu96SMt2CY3mdLOwg-36" style="edgeStyle=orthogonalEdgeStyle;rounded=0;orthogonalLoop=1;jettySize=auto;html=1;exitX=0.5;exitY=0;exitDx=0;exitDy=0;" edge="1" parent="1" source="oXNcu96SMt2CY3mdLOwg-26">
          <mxGeometry relative="1" as="geometry">
            <mxPoint x="429.6666666666665" y="370" as="targetPoint" />
          </mxGeometry>
        </mxCell>
        <mxCell id="oXNcu96SMt2CY3mdLOwg-38" style="edgeStyle=orthogonalEdgeStyle;rounded=0;orthogonalLoop=1;jettySize=auto;html=1;exitX=0.75;exitY=0;exitDx=0;exitDy=0;startArrow=classic;startFill=1;endArrow=none;endFill=0;" edge="1" parent="1" source="oXNcu96SMt2CY3mdLOwg-26">
          <mxGeometry relative="1" as="geometry">
            <mxPoint x="459.6666666666665" y="370" as="targetPoint" />
          </mxGeometry>
        </mxCell>
        <mxCell id="oXNcu96SMt2CY3mdLOwg-26" value="Messaging &lt;br&gt;interface" style="rounded=0;whiteSpace=wrap;html=1;" vertex="1" parent="1">
          <mxGeometry x="370" y="440" width="120" height="60" as="geometry" />
        </mxCell>
        <mxCell id="oXNcu96SMt2CY3mdLOwg-29" value="&lt;font style=&quot;font-size: 14px;&quot;&gt;REST&lt;/font&gt;" style="text;html=1;strokeColor=none;fillColor=none;align=center;verticalAlign=middle;whiteSpace=wrap;rounded=0;" vertex="1" parent="1">
          <mxGeometry x="520" y="-50" width="60" height="30" as="geometry" />
        </mxCell>
        <mxCell id="oXNcu96SMt2CY3mdLOwg-30" value="" style="endArrow=none;html=1;rounded=0;" edge="1" parent="1">
          <mxGeometry width="50" height="50" relative="1" as="geometry">
            <mxPoint x="210" y="370" as="sourcePoint" />
            <mxPoint x="1010" y="370" as="targetPoint" />
          </mxGeometry>
        </mxCell>
        <mxCell id="oXNcu96SMt2CY3mdLOwg-39" value="" style="endArrow=classic;html=1;rounded=0;" edge="1" parent="1">
          <mxGeometry width="50" height="50" relative="1" as="geometry">
            <mxPoint x="210" y="370" as="sourcePoint" />
            <mxPoint x="210" y="310" as="targetPoint" />
          </mxGeometry>
        </mxCell>
        <mxCell id="oXNcu96SMt2CY3mdLOwg-40" value="" style="endArrow=classic;html=1;rounded=0;" edge="1" parent="1">
          <mxGeometry width="50" height="50" relative="1" as="geometry">
            <mxPoint x="450" y="370" as="sourcePoint" />
            <mxPoint x="450" y="310" as="targetPoint" />
          </mxGeometry>
        </mxCell>
        <mxCell id="oXNcu96SMt2CY3mdLOwg-41" value="" style="endArrow=classic;html=1;rounded=0;" edge="1" parent="1">
          <mxGeometry width="50" height="50" relative="1" as="geometry">
            <mxPoint x="623.89" y="370" as="sourcePoint" />
            <mxPoint x="623.89" y="310" as="targetPoint" />
          </mxGeometry>
        </mxCell>
        <mxCell id="oXNcu96SMt2CY3mdLOwg-42" value="" style="endArrow=classic;html=1;rounded=0;" edge="1" parent="1">
          <mxGeometry width="50" height="50" relative="1" as="geometry">
            <mxPoint x="810" y="370" as="sourcePoint" />
            <mxPoint x="810" y="310" as="targetPoint" />
          </mxGeometry>
        </mxCell>
        <mxCell id="oXNcu96SMt2CY3mdLOwg-43" value="" style="endArrow=classic;html=1;rounded=0;" edge="1" parent="1">
          <mxGeometry width="50" height="50" relative="1" as="geometry">
            <mxPoint x="1010" y="370" as="sourcePoint" />
            <mxPoint x="1010" y="310" as="targetPoint" />
          </mxGeometry>
        </mxCell>
        <mxCell id="oXNcu96SMt2CY3mdLOwg-45" value="" style="endArrow=classic;html=1;rounded=0;" edge="1" parent="1">
          <mxGeometry width="50" height="50" relative="1" as="geometry">
            <mxPoint x="210" y="370" as="sourcePoint" />
            <mxPoint x="130" y="370" as="targetPoint" />
          </mxGeometry>
        </mxCell>
        <mxCell id="oXNcu96SMt2CY3mdLOwg-46" value="" style="endArrow=classic;html=1;rounded=0;" edge="1" parent="1">
          <mxGeometry width="50" height="50" relative="1" as="geometry">
            <mxPoint x="680" y="370" as="sourcePoint" />
            <mxPoint x="680" y="450" as="targetPoint" />
          </mxGeometry>
        </mxCell>
      </root>
    </mxGraphModel>
  </diagram>
</mxfile>
